<svg xmlns="http://www.w3.org/2000/svg" version="1.1" xmlns:xlink="http://www.w3.org/1999/xlink" xmlns:svgjs="http://svgjs.dev/svgjs" viewBox="0 0 13.319347925245289 1.9101079776511225"><g transform="matrix(1,0,0,1,2.086788738991514,0.40680398882556124)"><g><path d=" M 0.753 0.9239999999999998 L 0.378 0.9239999999999998 L 0.321 1.0964999999999998 L 0.012 1.0964999999999998 L 0.3975 0.0389999999999997 L 0.7365 0.0389999999999997 L 1.1205 1.0964999999999998 L 0.81 1.0964999999999998 L 0.753 0.9239999999999998 M 0.6795 0.6989999999999998 L 0.5655 0.35699999999999976 L 0.453 0.6989999999999998 L 0.6795 0.6989999999999998 M 1.8810073242187502 0.4544999999999998 L 1.8810073242187502 0.6989999999999998 L 1.2015073242187502 0.6989999999999998 L 1.2015073242187502 0.4544999999999998 L 1.8810073242187502 0.4544999999999998 M 2.0565117187500004 0.2759999999999998 L 2.0565117187500004 -2.220446049250313e-16 L 2.51851171875 -2.220446049250313e-16 L 2.51851171875 1.0964999999999998 L 2.21101171875 1.0964999999999998 L 2.21101171875 0.2759999999999998 L 2.0565117187500004 0.2759999999999998 M 4.24501611328125 0.0389999999999997 L 4.24501611328125 1.0964999999999998 L 3.9510161132812502 1.0964999999999998 L 3.9510161132812502 0.5129999999999998 L 3.7515161132812502 1.0964999999999998 L 3.5055161132812502 1.0964999999999998 L 3.30451611328125 0.5084999999999998 L 3.30451611328125 1.0964999999999998 L 3.01051611328125 1.0964999999999998 L 3.01051611328125 0.0389999999999997 L 3.3660161132812503 0.0389999999999997 L 3.63151611328125 0.7259999999999998 L 3.89101611328125 0.0389999999999997 L 4.24501611328125 0.0389999999999997 M 5.097012451171875 0.9239999999999998 L 4.722012451171875 0.9239999999999998 L 4.665012451171875 1.0964999999999998 L 4.356012451171875 1.0964999999999998 L 4.741512451171875 0.0389999999999997 L 5.0805124511718756 0.0389999999999997 L 5.464512451171875 1.0964999999999998 L 5.154012451171875 1.0964999999999998 L 5.097012451171875 0.9239999999999998 M 5.023512451171875 0.6989999999999998 L 4.909512451171875 0.35699999999999976 L 4.7970124511718755 0.6989999999999998 L 5.023512451171875 0.6989999999999998 M 5.671519775390625 1.0192499999999998 Q 5.5530197753906245 0.9314999999999998 5.544019775390625 0.7679999999999998 L 5.8575197753906245 0.7679999999999998 Q 5.862019775390625 0.8234999999999998 5.890519775390625 0.8489999999999998 Q 5.919019775390625 0.8744999999999998 5.964019775390625 0.8744999999999998 Q 6.004519775390625 0.8744999999999998 6.030769775390625 0.8542499999999998 Q 6.057019775390625 0.8339999999999999 6.057019775390625 0.7979999999999998 Q 6.057019775390625 0.7514999999999998 6.013519775390625 0.7259999999999998 Q 5.970019775390625 0.7004999999999998 5.872519775390625 0.6689999999999998 Q 5.769019775390625 0.6344999999999998 5.705269775390625 0.6022499999999997 Q 5.641519775390625 0.5699999999999998 5.594269775390625 0.5077499999999998 Q 5.547019775390625 0.4454999999999998 5.547019775390625 0.34499999999999975 Q 5.547019775390625 0.24299999999999977 5.5980197753906245 0.1702499999999998 Q 5.649019775390625 0.09749999999999981 5.7390197753906245 0.05999999999999983 Q 5.829019775390625 0.022499999999999742 5.943019775390625 0.022499999999999742 Q 6.127519775390625 0.022499999999999742 6.237769775390625 0.10874999999999979 Q 6.348019775390625 0.19499999999999984 6.355519775390625 0.35099999999999976 L 6.036019775390625 0.35099999999999976 Q 6.034519775390625 0.3029999999999998 6.006769775390625 0.2789999999999998 Q 5.979019775390625 0.2549999999999998 5.935519775390625 0.2549999999999998 Q 5.9025197753906244 0.2549999999999998 5.8815197753906245 0.27449999999999974 Q 5.860519775390625 0.2939999999999998 5.860519775390625 0.32999999999999974 Q 5.860519775390625 0.35999999999999976 5.883769775390625 0.3817499999999998 Q 5.907019775390625 0.40349999999999975 5.941519775390625 0.4192499999999998 Q 5.976019775390625 0.43499999999999983 6.0435197753906245 0.45899999999999974 Q 6.144019775390625 0.4934999999999998 6.2092697753906245 0.5272499999999998 Q 6.274519775390625 0.5609999999999998 6.321769775390625 0.6217499999999998 Q 6.369019775390625 0.6824999999999998 6.369019775390625 0.7754999999999999 Q 6.369019775390625 0.8699999999999998 6.321769775390625 0.9449999999999998 Q 6.274519775390625 1.0199999999999998 6.1852697753906245 1.0635 Q 6.096019775390625 1.1069999999999998 5.9745197753906245 1.1069999999999998 Q 5.790019775390625 1.1069999999999998 5.671519775390625 1.0192499999999998 M 6.754512451171874 1.0372499999999998 Q 6.630012451171875 0.9674999999999998 6.557262451171875 0.8437499999999998 Q 6.484512451171875 0.7199999999999998 6.484512451171875 0.5639999999999998 Q 6.484512451171875 0.4079999999999998 6.557262451171875 0.2842499999999998 Q 6.630012451171875 0.16049999999999975 6.754512451171874 0.09149999999999969 Q 6.879012451171874 0.022499999999999742 7.027512451171875 0.022499999999999742 Q 7.177512451171874 0.022499999999999742 7.3012624511718744 0.09149999999999969 Q 7.425012451171875 0.16049999999999975 7.497012451171875 0.2842499999999998 Q 7.569012451171875 0.4079999999999998 7.569012451171875 0.5639999999999998 Q 7.569012451171875 0.7199999999999998 7.497012451171875 0.8437499999999998 Q 7.425012451171875 0.9674999999999998 7.300512451171874 1.0372499999999998 Q 7.176012451171875 1.1069999999999998 7.027512451171875 1.1069999999999998 Q 6.879012451171874 1.1069999999999998 6.754512451171874 1.0372499999999998 M 7.205262451171874 0.7604999999999997 Q 7.270512451171874 0.6869999999999998 7.270512451171874 0.5639999999999998 Q 7.270512451171874 0.43799999999999983 7.205262451171874 0.36524999999999974 Q 7.1400124511718746 0.29249999999999976 7.027512451171875 0.29249999999999976 Q 6.913512451171875 0.29249999999999976 6.849012451171874 0.36524999999999974 Q 6.784512451171874 0.43799999999999983 6.784512451171874 0.5639999999999998 Q 6.784512451171874 0.6884999999999998 6.849012451171874 0.7612499999999998 Q 6.913512451171875 0.8339999999999999 7.027512451171875 0.8339999999999999 Q 7.1400124511718746 0.8339999999999999 7.205262451171874 0.7604999999999997 M 8.695493408203124 1.0964999999999998 L 8.401493408203125 1.0964999999999998 L 8.009993408203124 0.5054999999999998 L 8.009993408203124 1.0964999999999998 L 7.715993408203124 1.0964999999999998 L 7.715993408203124 0.0389999999999997 L 8.009993408203124 0.0389999999999997 L 8.401493408203125 0.6374999999999997 L 8.401493408203125 0.0389999999999997 L 8.695493408203124 0.0389999999999997 L 8.695493408203124 1.0964999999999998 M 9.414015380859375 1.0964999999999998 L 9.204015380859374 0.7064999999999998 L 9.172515380859375 0.7064999999999998 L 9.172515380859375 1.0964999999999998 L 8.878515380859374 1.0964999999999998 L 8.878515380859374 0.0389999999999997 L 9.342015380859374 0.0389999999999997 Q 9.469515380859375 0.0389999999999997 9.558015380859375 0.08324999999999982 Q 9.646515380859375 0.12749999999999984 9.691515380859375 0.20474999999999977 Q 9.736515380859375 0.2819999999999998 9.736515380859375 0.3779999999999998 Q 9.736515380859375 0.48599999999999977 9.677265380859374 0.5677499999999998 Q 9.618015380859374 0.6494999999999997 9.504015380859375 0.6839999999999997 L 9.742515380859375 1.0964999999999998 L 9.414015380859375 1.0964999999999998 M 9.172515380859375 0.5054999999999998 L 9.318015380859375 0.5054999999999998 Q 9.378015380859376 0.5054999999999998 9.408015380859375 0.47699999999999976 Q 9.438015380859374 0.4484999999999998 9.438015380859374 0.39449999999999974 Q 9.438015380859374 0.3434999999999998 9.407265380859375 0.3142499999999998 Q 9.376515380859376 0.2849999999999998 9.318015380859375 0.2849999999999998 L 9.172515380859375 0.2849999999999998 L 9.172515380859375 0.5054999999999998 M 10.846531494140626 0.0389999999999997 L 10.474531494140626 0.7604999999999997 L 10.474531494140626 1.0964999999999998 L 10.179031494140625 1.0964999999999998 L 10.179031494140625 0.7604999999999997 L 9.807031494140626 0.0389999999999997 L 10.143031494140626 0.0389999999999997 L 10.329031494140626 0.44699999999999984 L 10.515031494140626 0.0389999999999997 L 10.846531494140626 0.0389999999999997" fill="#fffcfa" fill-rule="nonzero"></path></g><g></g><g transform="matrix(-1,0,0,1,-2.106744201175238,0)" clip-path="url(#SvgjsClipPath1001)"><g clip-path="url(#SvgjsClipPath1000f184e54c-bf1c-4078-bc04-9050632156bc)"><path d=" M -1.7067442011752383 0.240628414212622 L -1.196910483976998 0.240628414212622 L -1.196910483976998 0.4893839739032009 L -1.7067442011752383 0.4893839739032009 Z" fill="#e9c3ad" transform="matrix(1,0,0,1,0,0)" fill-rule="nonzero"></path></g><g clip-path="url(#SvgjsClipPath1000f184e54c-bf1c-4078-bc04-9050632156bc)"><path d=" M -1.7067442011752383 0.5512135091705224 L -1.4576843567635285 0.5512135091705224 L -1.4576843567635285 0.8188011195774666 L -1.7067442011752383 0.8188011195774666 Z" fill="#e9c3ad" transform="matrix(1,0,0,1,0,0)" fill-rule="nonzero"></path></g><g clip-path="url(#SvgjsClipPath1000f184e54c-bf1c-4078-bc04-9050632156bc)"><path d=" M -0.7363876925988213 0.3956922814563655 C -0.7365071663543566 0.39556534059110887 -0.736621039777602 0.3954402665032817 -0.7367367799782777 0.39531892597031604 L -0.781582374185182 0.3453396938302237 L -0.7422120381812016 0.32195830651633783 C -0.7357159401546871 0.31810197601462137 -0.7317342727173202 0.31110638782281175 -0.7317356832426372 0.3035518810540694 L -0.7317356832426372 0.22085364089397863 L -0.662834795069527 0.18139556635077694 C -0.6564322156755444 0.17720854634940195 -0.6527497369519768 0.16992384484787865 -0.6531745130182092 0.16228553844647492 C -0.6535992890844418 0.15464723204507075 -0.6580667863498284 0.1478157612151843 -0.6648941418027352 0.14436447494658303 C -0.6717214972556422 0.14091318867798083 -0.6798714731677271 0.14136641946716316 -0.686274052436928 0.14555343965935 L -0.7648653822972895 0.19135109038630244 C -0.770913129503536 0.19530641577966065 -0.7745573240265072 0.2020458238745418 -0.7745558239377185 0.20927215371670543 L -0.7745558239377185 0.29136182443453434 L -0.8107358373133999 0.31284843265671597 L -0.8751004563310008 0.2411137763444859 L -1.0945046744857558 0.47972900103394556 L -0.6862740524837512 0.44891597277023376 Z" fill="#e9c3ad" transform="matrix(1,0,0,1,0,0)" fill-rule="nonzero"></path></g><g clip-path="url(#SvgjsClipPath1000f184e54c-bf1c-4078-bc04-9050632156bc)"><path d=" M -1.3944472713137983 0.5512135091705224 L -0.8533749005977489 0.5512135091705224 L -0.8533749005977489 0.8188011195774666 L -1.3944472713137983 0.8188011195774666 Z" fill="#e9c3ad" transform="matrix(1,0,0,1,0,0)" fill-rule="nonzero"></path></g><g clip-path="url(#SvgjsClipPath1000f184e54c-bf1c-4078-bc04-9050632156bc)"><path d=" M -1.7067442011752383 0.8821632791150237 L -1.196910483976998 0.8821632791150237 L -1.196910483976998 1.123257584231855 L -1.7067442011752383 1.123257584231855 Z" fill="#e9c3ad" transform="matrix(1,0,0,1,0,0)" fill-rule="nonzero"></path></g><g clip-path="url(#SvgjsClipPath1000f184e54c-bf1c-4078-bc04-9050632156bc)"><path d=" M -0.40982858317026927 -0.010130197660615951 C -0.42357739894406254 -0.023623264926465336 -0.44843540720527586 -0.026630643366598657 -0.46124710070908415 -0.026759451009285562 L -0.6661445914533621 0.10152176044265682 C -0.6554825946910212 0.10552719526412632 -0.6460582697130566 0.11226023530712292 -0.6388131030970656 0.12104825236307551 C -0.625456310583625 0.13757296617565135 -0.6197477052019194 0.15996682822893454 -0.6175467746116545 0.17989841085171754 L -0.4010005927026157 0.030742894174715568 C -0.39937462956086667 0.020455083756605645 -0.3982788312093095 0.001191807453852639 -0.40982858317026927 -0.010130197660615951 Z" fill="#e9c3ad" transform="matrix(1,0,0,1,0,0)" fill-rule="nonzero"></path></g><g clip-path="url(#SvgjsClipPath1000f184e54c-bf1c-4078-bc04-9050632156bc)"><path d=" M -1.1297662333657539 0.8821632791150237 L -0.5957222796745969 0.8821632791150237 L -0.5957222796745969 1.123257584231855 L -1.1297662333657539 1.123257584231855 Z" fill="#e9c3ad" transform="matrix(1,0,0,1,0,0)" fill-rule="nonzero"></path></g></g></g><defs><clipPath id="SvgjsClipPath1001"><path d=" M -1.7067442011752383 -0.026759451009285562 h 1.3067442011752384 v 1.150018902018571 h -1.3067442011752384 Z"></path></clipPath><clipPath id="SvgjsClipPath1000f184e54c-bf1c-4078-bc04-9050632156bc"><path d=" M -1.7067442011752383 -0.026759451009285562 L -0.3999999999999999 -0.026759451009285562 L -0.3999999999999999 1.1232594510092855 L -1.7067442011752383 1.1232594510092855 Z"></path></clipPath></defs></svg>